<svg width="565" height="180" viewBox="0 0 565 180" fill="none" xmlns="http://www.w3.org/2000/svg">
<g clip-path="url(#clip0_4_18)">
<mask id="mask0_4_18" style="mask-type:luminance" maskUnits="userSpaceOnUse" x="0" y="0" width="191" height="180">
<path d="M191 0H0V180H191V0Z" fill="white"/>
</mask>
<g mask="url(#mask0_4_18)">
<path d="M90.6723 0.487422C94.5195 0.4168 98.4384 0.330976 102.28 0.574923C103.868 0.675775 105.464 0.92489 107.045 1.10808C108.233 1.24579 109.443 1.30302 110.624 1.48724C123.525 3.49992 134.955 7.86686 146.243 14.3333C151.561 17.3796 156.479 21.2323 160.971 25.3701C164.11 28.2609 167.11 31.2537 169.848 34.5299C178.043 44.4919 184.03 56.0704 187.413 68.5029C194.012 92.6888 190.707 118.496 178.225 140.255C176.381 143.429 174.355 146.571 172.126 149.492C162.289 162.38 147.096 175.042 131.177 179.28C132.154 178.535 133.278 177.907 134.322 177.254C135.836 176.305 137.374 175.277 138.779 174.173C148.259 166.719 155.789 157.291 157.269 145.012C158.269 136.71 155.539 127.713 150.373 121.164C146.216 115.85 140.331 112.145 133.73 110.685C132.432 110.404 131.109 110.297 129.794 110.126C129.482 110.086 128.999 110.076 128.786 109.829C128.251 109.21 127.572 106.971 127.147 106.067C125.855 103.318 124.516 100.8 122.646 98.3993C117.33 91.5735 108.441 86.2549 99.8156 85.1689C96.3089 84.6078 92.727 84.8274 89.2389 85.4212C80.137 86.9697 70.6181 94.3889 66.0039 102.199C65.1327 103.673 64.3683 105.26 63.6665 106.819C63.2383 107.771 62.9112 108.949 62.2854 109.783C61.9242 110.264 59.7938 110.246 59.1223 110.356C51.2321 111.657 44.7104 115.818 40.0832 122.293C34.899 129.644 32.8706 138.752 34.447 147.598C36.4762 158.88 44.8202 168.49 53.7669 175.169C55.8891 176.754 58.2278 178.028 60.4022 179.536C57.1967 178.872 54.2047 177.536 51.2813 176.113C43.3488 172.328 36.0653 167.319 29.7002 161.271C11.4014 143.984 0.859597 120.081 0.453484 94.9569C0.389097 91.7561 0.375355 88.4114 0.634329 85.2214C2.27719 64.9822 11.0552 44.5866 25.2364 29.9278C39.031 15.4007 57.1267 5.65144 76.8784 2.10479C81.414 1.26775 86.0559 0.576948 90.6723 0.487422ZM118.492 76.9737C124.364 75.4751 128.595 71.46 131.604 66.3434C135.696 59.3867 137.525 50.3565 135.44 42.4589C134.394 38.495 132.224 34.191 128.53 32.0835C126.273 30.7959 123.494 30.1298 120.899 30.4036C116.443 30.8928 112.758 33.6411 110.025 37.0576C104.911 43.4515 102.246 53.137 103.179 61.2233C103.741 66.0975 105.385 71.5224 109.378 74.6996C111.954 76.7493 114.976 77.4388 118.226 77.018C118.315 77.0064 118.404 76.9892 118.492 76.9737ZM74.5185 77.1253C77.549 77.0831 80.3228 75.8631 82.448 73.6967C86.9231 69.1342 87.9291 62.289 87.8315 56.1742C87.8042 54.4603 87.7061 52.6354 87.4088 50.9452C86.4072 45.2493 83.5525 38.9515 79.3462 34.886C76.4877 32.1235 72.8419 30.3386 68.8157 30.4622C68.6247 30.4682 68.4411 30.485 68.2514 30.5053C64.7438 30.8976 61.9017 32.4848 59.6948 35.249C55.4306 40.5896 54.4506 48.0678 55.2418 54.6606C56.0624 61.4958 59.6858 69.4115 65.1962 73.7272C67.9415 75.8769 71.0265 77.0869 74.5185 77.1253ZM47.0819 100.74C49.2793 100.35 51.4231 98.8936 52.6914 97.0661C55.1428 93.5333 55.5844 88.9118 54.8019 84.799C53.5007 77.9594 49.2927 70.3102 43.4119 66.3068C40.2604 64.1614 37.5259 63.32 33.7538 63.5473C30.9243 64.3664 28.9825 65.7319 27.5617 68.3341C24.9668 73.0869 25.3637 79.2293 26.9019 84.2581C28.7081 90.1632 32.7167 96.1704 38.3033 99.1206C41.1592 100.629 43.8738 101.425 47.0819 100.74ZM147.142 100.878C152.548 100.05 156.682 96.7057 159.849 92.3938C163.352 87.6665 165.227 81.9375 165.194 76.0616C165.193 74.8929 165.189 73.719 165.004 72.562C164.584 69.9257 163.383 66.8312 161.147 65.2069C159.316 63.8768 157.027 63.2881 154.776 63.4509C150.253 63.8057 146.59 66.6741 143.733 70.011C139.053 75.4764 135.795 83.2199 136.38 90.4668C136.644 93.7546 138.07 96.747 140.608 98.8777C142.567 100.523 144.643 100.91 147.142 100.878Z" fill="black"/>
<path d="M94.0416 114.914C99.463 114.728 104.2 115.508 108.567 118.99C111.727 121.51 114.642 125.317 115.113 129.437C115.705 129.414 116.299 129.386 116.891 129.384C121.364 129.364 126.139 131.34 129.314 134.471C132.725 137.825 134.654 142.395 134.675 147.17C134.683 151.838 132.818 156.315 129.494 159.604C127.272 161.811 124.315 163.565 121.231 164.25C118.843 164.78 115.286 164.509 112.775 164.509L97.9877 164.506L80.5964 164.513C77.9842 164.515 74.0553 164.791 71.5995 164.329C68.68 163.779 65.6824 162.4 63.3938 160.51C59.6672 157.433 57.4266 153.495 56.9966 148.681C56.5706 143.913 57.7001 139.465 60.8382 135.772C63.6907 132.404 67.6754 130.187 72.0485 129.532C73.4646 129.312 74.9256 129.306 76.3542 129.188C76.9946 126.276 78.5654 123.479 80.5774 121.292C84.04 117.472 88.8828 115.178 94.0416 114.914Z" fill="black"/>
</g>
</g>
<path d="M263.016 127.344C252.2 127.344 243.944 124.336 238.248 118.32C232.616 112.304 229.8 103.76 229.8 92.688C229.8 87.184 230.664 82.288 232.392 78C234.12 73.648 236.488 70 239.496 67.056C242.504 64.048 246.088 61.776 250.248 60.24C254.408 58.704 258.92 57.936 263.784 57.936C266.6 57.936 269.16 58.16 271.464 58.608C273.768 58.992 275.784 59.472 277.512 60.048C279.24 60.56 280.68 61.104 281.832 61.68C282.984 62.256 283.816 62.704 284.328 63.024L280.008 75.12C277.96 74.032 275.56 73.104 272.808 72.336C270.12 71.568 267.048 71.184 263.592 71.184C261.288 71.184 259.016 71.568 256.776 72.336C254.6 73.104 252.648 74.352 250.92 76.08C249.256 77.744 247.912 79.92 246.888 82.608C245.864 85.296 245.352 88.56 245.352 92.4C245.352 95.472 245.672 98.352 246.312 101.04C247.016 103.664 248.104 105.936 249.576 107.856C251.112 109.776 253.096 111.312 255.528 112.464C257.96 113.552 260.904 114.096 264.36 114.096C266.536 114.096 268.488 113.968 270.216 113.712C271.944 113.456 273.48 113.168 274.824 112.848C276.168 112.464 277.352 112.048 278.376 111.6C279.4 111.152 280.328 110.736 281.16 110.352L285.288 122.352C283.176 123.632 280.2 124.784 276.36 125.808C272.52 126.832 268.072 127.344 263.016 127.344ZM314.204 116.016C315.612 116.016 316.956 115.984 318.236 115.92C319.516 115.856 320.54 115.76 321.308 115.632V104.784C320.732 104.656 319.868 104.528 318.716 104.4C317.564 104.272 316.508 104.208 315.548 104.208C314.204 104.208 312.924 104.304 311.708 104.496C310.556 104.624 309.532 104.912 308.636 105.36C307.74 105.808 307.036 106.416 306.524 107.184C306.012 107.952 305.756 108.912 305.756 110.064C305.756 112.304 306.492 113.872 307.964 114.768C309.5 115.6 311.58 116.016 314.204 116.016ZM313.052 74.16C317.276 74.16 320.796 74.64 323.612 75.6C326.428 76.56 328.668 77.936 330.332 79.728C332.06 81.52 333.276 83.696 333.98 86.256C334.684 88.816 335.036 91.664 335.036 94.8V124.56C332.988 125.008 330.14 125.52 326.492 126.096C322.844 126.736 318.428 127.056 313.244 127.056C309.98 127.056 307.004 126.768 304.316 126.192C301.692 125.616 299.42 124.688 297.5 123.408C295.58 122.064 294.108 120.336 293.084 118.224C292.06 116.112 291.548 113.52 291.548 110.448C291.548 107.504 292.124 105.008 293.276 102.96C294.492 100.912 296.092 99.28 298.076 98.064C300.06 96.848 302.332 95.984 304.892 95.472C307.452 94.896 310.108 94.608 312.859 94.608C314.716 94.608 316.348 94.704 317.756 94.896C319.228 95.024 320.412 95.216 321.308 95.472V94.128C321.308 91.696 320.572 89.744 319.1 88.272C317.628 86.8 315.068 86.064 311.42 86.064C308.988 86.064 306.588 86.256 304.22 86.64C301.852 86.96 299.804 87.44 298.076 88.08L296.252 76.56C297.084 76.304 298.108 76.048 299.324 75.792C300.604 75.472 301.98 75.216 303.452 75.024C304.924 74.768 306.46 74.576 308.06 74.448C309.724 74.256 311.388 74.16 313.052 74.16ZM347.49 62.928L361.794 60.624V75.504H378.978V87.408H361.794V105.168C361.794 108.176 362.306 110.576 363.33 112.368C364.418 114.16 366.562 115.056 369.762 115.056C371.298 115.056 372.866 114.928 374.466 114.672C376.13 114.352 377.634 113.936 378.978 113.424L380.994 124.56C379.266 125.264 377.346 125.872 375.234 126.384C373.122 126.896 370.53 127.152 367.458 127.152C363.554 127.152 360.322 126.64 357.762 125.616C355.202 124.528 353.154 123.056 351.618 121.2C350.082 119.28 348.994 116.976 348.354 114.288C347.778 111.6 347.49 108.624 347.49 105.36V62.928ZM404.162 92.688C404.162 95.952 404.546 98.896 405.314 101.52C406.146 104.144 407.298 106.416 408.77 108.336C410.306 110.192 412.162 111.632 414.338 112.656C416.514 113.68 419.01 114.192 421.826 114.192C424.578 114.192 427.042 113.68 429.218 112.656C431.458 111.632 433.314 110.192 434.786 108.336C436.322 106.416 437.474 104.144 438.242 101.52C439.074 98.896 439.49 95.952 439.49 92.688C439.49 89.424 439.074 86.48 438.242 83.856C437.474 81.168 436.322 78.896 434.786 77.04C433.314 75.12 431.458 73.648 429.218 72.624C427.042 71.6 424.578 71.088 421.826 71.088C419.01 71.088 416.514 71.632 414.338 72.72C412.162 73.744 410.306 75.216 408.77 77.136C407.298 78.992 406.146 81.264 405.314 83.952C404.546 86.576 404.162 89.488 404.162 92.688ZM454.946 92.688C454.946 98.384 454.082 103.408 452.354 107.76C450.69 112.048 448.386 115.664 445.442 118.608C442.498 121.488 438.978 123.664 434.882 125.136C430.85 126.608 426.498 127.344 421.826 127.344C417.282 127.344 412.994 126.608 408.962 125.136C404.93 123.664 401.41 121.488 398.402 118.608C395.394 115.664 393.026 112.048 391.298 107.76C389.57 103.408 388.706 98.384 388.706 92.688C388.706 86.992 389.602 82 391.394 77.712C393.186 73.36 395.586 69.712 398.594 66.768C401.666 63.824 405.186 61.616 409.154 60.144C413.186 58.672 417.41 57.936 421.826 57.936C426.37 57.936 430.658 58.672 434.69 60.144C438.722 61.616 442.242 63.824 445.25 66.768C448.258 69.712 450.626 73.36 452.354 77.712C454.082 82 454.946 86.992 454.946 92.688ZM498.822 101.136C498.822 96.72 497.83 93.2 495.846 90.576C493.862 87.888 490.918 86.544 487.014 86.544C485.734 86.544 484.55 86.608 483.462 86.736C482.374 86.8 481.478 86.896 480.774 87.024V112.848C481.67 113.424 482.822 113.904 484.23 114.288C485.702 114.672 487.174 114.864 488.646 114.864C495.43 114.864 498.822 110.288 498.822 101.136ZM513.414 100.752C513.414 104.656 512.934 108.208 511.974 111.408C511.014 114.608 509.606 117.36 507.75 119.664C505.894 121.968 503.59 123.76 500.838 125.04C498.086 126.32 494.918 126.96 491.334 126.96C489.35 126.96 487.494 126.768 485.766 126.384C484.038 126 482.374 125.456 480.774 124.752V143.76H466.47V77.232C467.75 76.848 469.222 76.496 470.886 76.176C472.55 75.792 474.278 75.472 476.07 75.216C477.926 74.96 479.782 74.768 481.638 74.64C483.558 74.448 485.382 74.352 487.11 74.352C491.27 74.352 494.982 74.992 498.246 76.272C501.51 77.488 504.262 79.248 506.502 81.552C508.742 83.792 510.438 86.544 511.59 89.808C512.806 93.072 513.414 96.72 513.414 100.752ZM538.904 115.728C541.528 115.728 543.384 115.472 544.472 114.96C545.56 114.448 546.104 113.456 546.104 111.984C546.104 110.832 545.4 109.84 543.992 109.008C542.584 108.112 540.44 107.12 537.56 106.032C535.32 105.2 533.272 104.336 531.416 103.44C529.624 102.544 528.088 101.488 526.808 100.272C525.528 98.992 524.536 97.488 523.832 95.76C523.128 94.032 522.776 91.952 522.776 89.52C522.776 84.784 524.536 81.04 528.056 78.288C531.576 75.536 536.408 74.16 542.552 74.16C545.624 74.16 548.568 74.448 551.384 75.024C554.2 75.536 556.44 76.112 558.104 76.752L555.608 87.888C553.944 87.312 552.12 86.8 550.136 86.352C548.216 85.904 546.04 85.68 543.608 85.68C539.128 85.68 536.888 86.928 536.888 89.424C536.888 90 536.984 90.512 537.176 90.96C537.368 91.408 537.752 91.856 538.328 92.304C538.904 92.688 539.672 93.136 540.632 93.648C541.656 94.096 542.936 94.608 544.472 95.184C547.608 96.336 550.2 97.488 552.248 98.64C554.296 99.728 555.896 100.944 557.048 102.288C558.264 103.568 559.096 105.008 559.544 106.608C560.056 108.208 560.312 110.064 560.312 112.176C560.312 117.168 558.424 120.944 554.648 123.504C550.936 126.064 545.656 127.344 538.808 127.344C534.328 127.344 530.584 126.96 527.576 126.192C524.632 125.424 522.584 124.784 521.432 124.272L523.832 112.656C526.264 113.616 528.76 114.384 531.32 114.96C533.88 115.472 536.408 115.728 538.904 115.728Z" fill="black"/>
<defs>
<clipPath id="clip0_4_18">
<rect width="191" height="180" fill="white"/>
</clipPath>
</defs>
</svg>